<?xml version="1.0" standalone="no"?>
<!DOCTYPE svg PUBLIC "-//W3C//DTD SVG 20010904//EN"
 "http://www.w3.org/TR/2001/REC-SVG-20010904/DTD/svg10.dtd">
<svg version="1.0" xmlns="http://www.w3.org/2000/svg"
 width="512.000000pt" height="512.000000pt" viewBox="0 0 512.000000 512.000000"
 preserveAspectRatio="xMidYMid meet">

<g transform="translate(0.000000,512.000000) scale(0.100000,-0.100000)"
fill="#000000" stroke="none">
<path d="M2369 4630 c-623 -56 -1189 -397 -1547 -931 -158 -236 -271 -534
-319 -839 -23 -145 -23 -456 0 -606 118 -753 615 -1370 1322 -1641 106 -41
156 -40 192 2 22 25 23 33 23 242 l0 215 -22 -7 c-13 -4 -86 -9 -163 -12 -162
-6 -242 8 -337 59 -78 42 -131 103 -183 214 -71 152 -131 230 -236 303 -99 70
-87 116 29 116 125 -1 211 -59 322 -215 76 -108 119 -147 207 -188 51 -24 70
-27 158 -27 93 0 183 17 223 43 6 5 19 35 27 68 20 75 50 138 87 180 l29 33
-38 6 c-278 43 -447 106 -588 218 -146 117 -248 294 -290 507 -23 117 -31 340
-16 436 22 134 77 262 156 366 l44 56 -15 49 c-36 114 -28 301 17 441 22 68
22 67 109 62 94 -5 254 -69 400 -159 l85 -53 65 16 c281 67 629 68 907 0 l68
-16 80 50 c147 91 272 143 387 162 97 15 104 11 135 -84 23 -71 26 -97 27
-221 1 -107 -3 -153 -16 -193 l-17 -53 39 -50 c58 -73 95 -144 132 -249 33
-95 33 -95 32 -285 0 -153 -4 -208 -21 -285 -60 -279 -204 -475 -432 -589
-117 -59 -244 -95 -444 -126 l-38 -6 26 -31 c38 -45 73 -119 90 -190 11 -49
15 -139 15 -410 0 -248 3 -355 12 -373 14 -30 55 -55 92 -55 73 0 363 136 528
246 488 329 809 834 904 1425 23 143 23 476 1 615 -103 636 -458 1158 -1014
1491 -349 209 -807 311 -1234 273z"/>
</g>
</svg>
